<svg xmlns="http://www.w3.org/2000/svg" xmlns:xlink="http://www.w3.org/1999/xlink" viewBox="0 0 355 235"><g transform="translate(0 82.859)" id="ss9934270670_1"><g opacity="0.5"><defs><linearGradient id="idss9934270670_2g495523547" x1="0.5011129005694421" x2="0.49283526817880596" y1="0.5776651937027197" y2="0"><stop offset="0" stop-color="rgb(11,11,11)" stop-opacity="1"></stop><stop offset="1" stop-color="rgb(24, 0, 133)" stop-opacity="1"></stop></linearGradient></defs><path d="M 0 58.396 C 0 58.396 43.318 17.306 57.901 14.294 C 72.485 11.281 94.815 54.856 118.65 53.985 C 142.485 53.115 161.455 37.323 177.5 34.278 C 193.545 31.233 210.354 57.808 237.3 64.068 C 264.245 70.327 282.772 6.192 295.2 0.935 C 307.629 -4.321 355 14.294 355 14.294 L 355 152.141 L 0 152.141 Z" fill="url(#idss9934270670_2g495523547)"></path></g><path d="M 0 58.253 C 0 58.253 43.318 17.263 57.901 14.259 C 72.485 11.253 94.815 54.722 118.65 53.854 C 142.485 52.984 161.455 37.231 177.5 34.193 C 193.545 31.156 210.354 57.666 237.3 63.91 C 264.245 70.155 282.772 6.176 295.2 0.933 C 307.629 -4.31 355 14.259 355 14.259" fill="transparent" stroke-width="2.06" stroke="rgb(38, 0, 133)" stroke-linecap="round" stroke-miterlimit="10"></path><g opacity="0.5"><defs><linearGradient id="idss9934270670_4g-1850922816" x1="0.4990778968637484" x2="0.5025125628140703" y1="0.6834985241140672" y2="0"><stop offset="0" stop-color="rgb(11,11,11)" stop-opacity="1"></stop><stop offset="1" stop-color="rgb(215, 201, 255)" stop-opacity="1"></stop></linearGradient></defs><path d="M 0 103.236 C 0 103.236 13.604 97.494 57.901 69.332 C 102.199 41.169 104.263 13.982 118.65 13.982 C 133.037 13.982 156.075 60.043 177.5 60.043 C 198.925 60.043 202.846 31.096 237.3 35.026 C 271.753 38.956 278.441 65.999 295.2 73.467 C 311.96 80.935 355 44.324 355 44.324 L 355 152.141 L 0 152.141 Z" fill="url(#idss9934270670_4g-1850922816)"></path></g><path d="M 0 103.076 C 0 103.076 13.604 97.344 57.901 69.232 C 102.199 41.12 104.263 13.981 118.65 13.981 C 133.037 13.981 156.075 59.96 177.5 59.96 C 198.925 59.96 202.846 31.065 237.3 34.988 C 271.753 38.91 278.441 65.905 295.2 73.36 C 311.96 80.815 355 44.271 355 44.271" fill="transparent" stroke-width="2.06" stroke="rgb(215, 201, 255)" stroke-linecap="round" stroke-miterlimit="10"></path></g><path d="M 117.236 103.333 C 121.514 103.333 124.982 99.826 124.982 95.5 C 124.982 91.174 121.514 87.667 117.236 87.667 C 112.959 87.667 109.491 91.174 109.491 95.5 C 109.491 99.826 112.959 103.333 117.236 103.333 Z" fill="rgba(255,255,255,0.3)"></path><path d="M 117.236 100.722 C 120.088 100.722 122.4 98.384 122.4 95.5 C 122.4 92.616 120.088 90.278 117.236 90.278 C 114.385 90.278 112.073 92.616 112.073 95.5 C 112.073 98.384 114.385 100.722 117.236 100.722 Z" fill="rgb(133, 89, 235)"></path></svg>